<svg  width="16" height="16" viewBox="0 0 16 16" xmlns="http://www.w3.org/2000/svg" fill="#9ca3af"><path d="M8 0a1 1 0 0 1 1 1v.5a1 1 0 1 1-2 0V1a1 1 0 0 1 1-1Z"></path><path d="M12 8a4 4 0 1 1-8 0 4 4 0 0 1 8 0Zm-4 2a2 2 0 1 0 0-4 2 2 0 0 0 0 4Z"></path><path d="M13.657 3.757a1 1 0 0 0-1.414-1.414l-.354.354a1 1 0 0 0 1.414 1.414l.354-.354ZM13.5 8a1 1 0 0 1 1-1h.5a1 1 0 1 1 0 2h-.5a1 1 0 0 1-1-1ZM13.303 11.889a1 1 0 0 0-1.414 1.414l.354.354a1 1 0 0 0 1.414-1.414l-.354-.354ZM8 13.5a1 1 0 0 1 1 1v.5a1 1 0 1 1-2 0v-.5a1 1 0 0 1 1-1ZM4.111 13.303a1 1 0 1 0-1.414-1.414l-.354.354a1 1 0 1 0 1.414 1.414l.354-.354ZM0 8a1 1 0 0 1 1-1h.5a1 1 0 0 1 0 2H1a1 1 0 0 1-1-1ZM3.757 2.343a1 1 0 1 0-1.414 1.414l.354.354A1 1 0 1 0 4.11 2.697l-.354-.354Z"></path></svg>
