<?xml version="1.0" standalone="no"?>
<!DOCTYPE svg PUBLIC "-//W3C//DTD SVG 20010904//EN"
 "http://www.w3.org/TR/2001/REC-SVG-20010904/DTD/svg10.dtd">
<svg version="1.0" xmlns="http://www.w3.org/2000/svg"
 width="512.000000pt" height="512.000000pt" viewBox="0 0 512.000000 512.000000"
 preserveAspectRatio="xMidYMid meet">

<g transform="translate(0.000000,512.000000) scale(0.100000,-0.100000)"
fill="#49b1f5" stroke="none">
<path d="M2405 5019 c-68 -23 -164 -65 -219 -98 -69 -40 -65 -44 53 -55 195
-19 391 -108 530 -240 145 -138 213 -295 233 -535 l10 -136 97 -98 96 -97
-315 -315 -315 -315 173 -172 172 -173 313 313 c171 171 317 312 322 312 5 0
182 -172 392 -382 l382 -382 178 172 c98 94 259 252 358 352 l180 182 -627
622 -628 621 -87 34 c-543 207 -608 230 -863 312 -257 83 -362 101 -435 78z"/>
<path d="M980 4773 c-104 -18 -170 -56 -170 -98 0 -35 13 -50 340 -398 113
-120 206 -222 208 -227 2 -5 -36 -83 -84 -172 l-87 -163 -147 -88 c-81 -48
-149 -87 -152 -87 -3 0 -85 87 -183 193 -389 421 -399 429 -443 373 -50 -65
-72 -373 -37 -541 81 -391 344 -680 706 -776 103 -28 285 -31 394 -7 39 9 81
19 95 22 23 5 104 -81 835 -869 l810 -874 -4 -111 c-13 -422 195 -755 551
-877 62 -21 93 -25 208 -26 152 -2 207 8 317 58 224 103 381 297 454 561 19
68 21 97 17 233 -4 143 -7 164 -37 251 -45 134 -110 239 -207 335 -164 163
-337 230 -579 223 l-119 -3 -335 360 c-184 198 -550 592 -814 875 -425 457
-478 517 -473 540 33 144 38 191 33 335 -5 162 -15 212 -72 361 -108 280 -365
511 -649 584 -62 16 -108 20 -215 19 -75 -1 -147 -4 -161 -6z m2980 -3579 c96
-34 127 -50 139 -72 11 -21 66 -231 76 -288 6 -41 6 -41 -98 -155 -107 -118
-171 -179 -187 -179 -14 0 -252 81 -282 96 -29 15 -44 55 -94 252 -21 83 -22
97 -10 120 18 35 180 212 229 250 37 30 38 30 95 17 31 -8 91 -26 132 -41z"/>
<path d="M974 1507 c-829 -842 -841 -855 -850 -903 -13 -68 9 -107 129 -231
146 -152 176 -173 239 -173 27 0 61 6 77 14 23 13 1531 1526 1539 1545 1 3
-98 106 -220 228 l-223 222 -691 -702z"/>
</g>
</svg>
